<svg version="1.2" xmlns="http://www.w3.org/2000/svg" viewBox="0 0 220 223" width="220" height="223">
	<title>New Project</title>
	<style>
		.s0 { fill: #181818 } 
	</style>
	<path id="Path 0" class="s0" d="m14 111.5v109.5h90c0-162.4-0.2-175.3-1.5-180.5-0.9-3.3-2.6-8.3-3.9-11-1.3-2.8-4.6-7.5-7.3-10.5-2.8-3-7.2-6.9-9.9-8.7-2.7-1.8-8.1-4.4-11.9-5.8-6.8-2.4-7.8-2.5-31.3-2.5h-24.2zm142.5 10.9c-2.7 0.6-7.7 2.5-11 4.1-3.7 1.7-8.6 5.4-12.6 9.4q-6.6 6.6-9.6 13.1c-1.7 3.6-3.6 8.9-4.2 11.8-0.6 2.8-1.1 7.4-1.1 10.2 0 2.7 0.5 7.4 1.1 10.3 0.6 2.8 2.4 7.9 3.9 11.2 1.5 3.3 5 8.5 7.7 11.5 2.8 3 7.2 6.9 9.9 8.7 2.7 1.8 8.1 4.4 11.9 5.8 5.4 1.9 8.9 2.5 15.5 2.5 6.6 0 10.1-0.6 15.5-2.5 3.8-1.4 9-3.9 11.5-5.5 2.5-1.5 6.5-5 9-7.7 2.5-2.6 5.5-6.4 6.7-8.3 1.2-1.9 3.3-6.7 4.7-10.5 2-5.5 2.6-8.9 2.6-15.5 0-6.8-0.6-10-2.8-16-1.5-4.1-4.2-9.5-5.9-12-1.6-2.5-5.4-6.7-8.4-9.3-3-2.7-8.1-6.1-11.4-7.7-3.3-1.5-8.4-3.3-11.3-3.9-2.8-0.6-7.8-1.1-10.9-1-3.2 0-8 0.6-10.8 1.3z"/>
</svg>